/vscmnt/brussel_pixiu_data/_data_brussel/112/vsc11236/PredSimResults/SUBJ11opt3D/trackIG/worker_07.mot
version=1
nRows=11
nColumns=50
inDegrees=yes
endheader
                time	         pelvis_tilt	         pelvis_list	     pelvis_rotation	           pelvis_tx	           pelvis_ty	           pelvis_tz	       hip_flexion_r	     hip_adduction_r	      hip_rotation_r	        knee_angle_r	       ankle_angle_r	         mtp_angle_r	       hip_flexion_l	     hip_adduction_l	      hip_rotation_l	        knee_angle_l	       ankle_angle_l	         mtp_angle_l	    lumbar_extension	      lumbar_bending	     lumbar_rotation	 ercspn_r/activation	 intobl_r/activation	 extobl_r/activation	    abd_r/activation	    add_r/activation	hamstrings_r/activation	bifemsh_r/activation	glut_max_r/activation	iliopsoas_r/activation	rect_fem_r/activation	  vasti_r/activation	gastroc_r/activation	 soleus_r/activation	tib_ant_r/activation	 ercspn_l/activation	 intobl_l/activation	 extobl_l/activation	    abd_l/activation	    add_l/activation	hamstrings_l/activation	bifemsh_l/activation	glut_max_l/activation	iliopsoas_l/activation	rect_fem_l/activation	  vasti_l/activation	gastroc_l/activation	 soleus_l/activation	tib_ant_l/activation	
          0.00000000	         -3.68488420	         -1.33311504	          5.67608258	          0.00000000	          0.93656643	         -0.00518911	         32.15354195	         -1.82525764	         -5.52599478	         -9.66950794	          2.02149586	          0.27625351	        -15.09383645	         -3.38937027	         -1.94552243	        -11.04624482	         11.38784052	         31.13105432	        -14.11861352	         -1.07936042	         -3.27197628	          0.03823397	          0.22639550	          0.05077747	          0.00999999	          0.24734398	          0.04304595	          0.17190278	          0.10581349	          0.09371789	          0.03296844	          0.01051274	          0.00999999	          0.00999999	          0.44955098	          0.01000021	          0.00999999	          0.00999999	          0.03177283	          0.07555982	          0.01373537	          0.22413128	          0.01780331	          0.21058915	          0.01211993	          0.01000000	          0.14783222	          0.30173457	          0.01389012	
          0.01271965	         -3.75757186	         -1.40348941	          5.84529993	          0.01923347	          0.93455788	         -0.00439531	         32.00294847	         -1.71370757	         -5.55864549	        -11.23969976	          1.49445579	          0.21934975	        -15.75393482	         -3.66114286	         -2.19702435	        -11.71182658	         10.35973635	         33.02033238	        -13.67628012	         -0.57463576	         -3.47480541	          0.03154633	          0.18679587	          0.04189580	          0.05277500	          0.21984199	          0.05642832	          0.14183467	          0.13752799	          0.07732537	          0.02720182	          0.00999999	          0.01211993	          0.01211993	          0.50769728	          0.03386738	          0.00999999	          0.01000000	          0.02621533	          0.06234339	          0.01708889	          0.18492770	          0.01468927	          0.17375427	          0.01000000	          0.01000000	          0.12197437	          0.27498894	          0.01146055	
          0.02543929	         -3.81103285	         -1.46432391	          5.98221828	          0.03867107	          0.93294338	         -0.00352870	         31.80223371	         -1.62069621	         -5.63366076	        -12.79177370	          0.90900773	          0.20468202	        -16.21552473	         -3.93128638	         -2.46900690	        -12.75462086	          9.18834593	         34.95387565	        -13.22410692	         -0.07914033	         -3.66439366	          0.03463746	          0.15412275	          0.03456766	          0.10721529	          0.26713526	          0.04655825	          0.11702587	          0.15481593	          0.06380012	          0.02244386	          0.00999999	          0.00999999	          0.00999999	          0.57739546	          0.05372736	          0.00999999	          0.00999999	          0.02162992	          0.05143870	          0.01409982	          0.15258135	          0.01211992	          0.17988742	          0.01000002	          0.01000000	          0.10063941	          0.24716358	          0.00999999	
          0.03815894	         -3.84464765	         -1.50963596	          6.08500835	          0.05803950	          0.93187924	         -0.00258605	         31.68440875	         -1.54929697	         -5.76036896	        -14.49439152	          0.27792280	          0.15754174	        -16.37848858	         -4.19613085	         -2.74764921	        -14.31569322	          7.87484929	         36.88979742	        -12.79515353	          0.39893853	         -3.83591534	          0.05008586	          0.12716461	          0.02852131	          0.14007711	          0.33780414	          0.04316382	          0.09655647	          0.16659680	          0.05264062	          0.01851812	          0.04552445	          0.00999999	          0.00999999	          0.62079057	          0.07917831	          0.00999999	          0.00999999	          0.01784655	          0.11257660	          0.01165224	          0.12589282	          0.00999999	          0.18715610	          0.01000000	          0.01000000	          0.08303622	          0.20655821	          0.00999999	
          0.05087859	         -3.85819383	         -1.53932368	          6.15468727	          0.07722139	          0.93143701	         -0.00158896	         31.62266248	         -1.49476522	         -5.91157114	        -16.36698136	         -0.03107500	          0.10008964	        -16.16157681	         -4.45773991	         -3.03226390	        -16.52293064	          6.44513501	         38.70535811	        -12.39865434	          0.86029185	         -3.98533331	          0.04184815	          0.10492180	          0.02353255	          0.16730471	          0.36711330	          0.04277674	          0.07966744	          0.17763527	          0.04343306	          0.01527906	          0.10192865	          0.00999999	          0.00999999	          0.62639552	          0.11753327	          0.00999999	          0.00999999	          0.01472495	          0.16815151	          0.01000000	          0.10387247	          0.00999999	          0.16537466	          0.00999999	          0.00999999	          0.06851206	          0.17042840	          0.00999999	
          0.06359824	         -3.85390130	         -1.55568387	          6.18891681	          0.09608508	          0.93171245	         -0.00056245	         31.52793075	         -1.43944861	         -6.04589634	        -18.25297683	          0.05962290	          0.04883356	        -15.49881155	         -4.71988525	         -3.33763248	        -19.45802096	          4.89943248	         40.20773401	        -12.04396108	          1.30803808	         -4.10668784	          0.03452835	          0.08656956	          0.01941639	          0.17921730	          0.38336404	          0.04188745	          0.06573253	          0.18254705	          0.03583604	          0.01260654	          0.13215831	          0.00999999	          0.00999999	          0.58842378	          0.13193129	          0.00999999	          0.00999999	          0.01214936	          0.21256631	          0.01505823	          0.08746100	          0.00999999	          0.13644841	          0.00999999	          0.00999999	          0.05652838	          0.14061817	          0.00999999	
          0.07631788	         -3.83390541	         -1.55580501	          6.18630732	          0.11452803	          0.93272592	          0.00046139	         31.34068093	         -1.37352376	         -6.12970659	        -20.03183725	          0.52890511	          0.02119762	        -14.35560257	         -4.98797023	         -3.69142316	        -23.17796038	          3.40447768	         40.83386034	        -11.73830289	          1.74147380	         -4.19591060	          0.02848888	          0.07142738	          0.01602020	          0.18679438	          0.38574590	          0.04713752	          0.05423503	          0.16055258	          0.02956783	          0.01040149	          0.16349482	          0.00999999	          0.00999999	          0.51193961	          0.13662206	          0.00999999	          0.00999999	          0.01002427	          0.23897631	          0.02064874	          0.07216293	          0.00999999	          0.11258174	          0.00999999	          0.00999999	          0.04664080	          0.11602216	          0.00999999	
          0.08903753	         -3.80066300	         -1.53035273	          6.14359709	          0.13251423	          0.93445664	          0.00145005	         30.98545052	         -1.29283033	         -6.13525266	        -21.54776663	          1.29684902	          0.07481088	        -12.73953957	         -5.26432524	         -4.08644447	        -27.62708713	          1.85298709	         40.49313529	        -11.48227383	          2.15329872	         -4.24855590	          0.02350579	          0.05893377	          0.01321805	          0.18760074	          0.35125016	          0.05023771	          0.04474859	          0.13246977	          0.02439602	          0.01000000	          0.22623966	          0.00999999	          0.00999999	          0.42397077	          0.12339696	          0.00999999	          0.01449609	          0.00999999	          0.28306600	          0.03169585	          0.07116785	          0.00999999	          0.09288968	          0.00999999	          0.00999999	          0.03848270	          0.09572832	          0.00999999	
          0.10175718	         -3.75867906	         -1.46326834	          6.05250951	          0.14999397	          0.93691417	          0.00236331	         30.36840728	         -1.20593826	         -6.06755376	        -22.59827889	          2.20409054	          0.27259078	        -10.69367884	         -5.53686114	         -4.51431828	        -32.62464801	          0.00984276	         39.28903762	        -11.28077835	          2.53050632	         -4.25797760	          0.01939431	          0.04862546	          0.01090604	          0.16381564	          0.29424050	          0.05634460	          0.03692147	          0.10929902	          0.02012882	          0.00999999	          0.27027030	          0.00999999	          0.00999999	          0.34995719	          0.10275934	          0.01875898	          0.04750698	          0.00999999	          0.31168660	          0.02615182	          0.07187829	          0.00999999	          0.07664202	          0.00999999	          0.00999999	          0.03175156	          0.07898414	          0.00999999	
          0.11447683	         -3.71252020	         -1.33846428	          5.91109228	          0.16689223	          0.94005779	          0.00319633	         29.47878396	         -1.13432413	         -5.94017855	        -23.12024676	          3.07125278	          0.57923557	         -8.28907490	         -5.79221613	         -4.93424746	        -37.94491510	         -2.16985690	         37.11028889	        -11.14605630	          2.85248063	         -4.22859359	          0.01600198	          0.04012021	          0.00999999	          0.13516210	          0.24277387	          0.05033624	          0.03046340	          0.09018115	          0.01660802	          0.00999999	          0.28728360	          0.00999999	          0.00999999	          0.29611253	          0.12544154	          0.06038283	          0.10192892	          0.00999999	          0.25716841	          0.02157751	          0.06483132	          0.00999999	          0.06323630	          0.00999999	          0.00999999	          0.02619778	          0.06516875	          0.04456772	
          0.12719647	         -3.66348437	         -1.15987406	          5.72212385	          0.18317117	          0.94371650	          0.00399484	         28.38413466	         -1.08427991	         -5.75659915	        -23.21189188	          3.84363022	          0.94454278	         -5.63836214	         -6.01865844	         -5.26974957	        -43.37842470	         -4.28341372	         33.44467756	        -11.08650154	          3.10783170	         -4.16610447	          0.01320302	          0.03310264	          0.00999999	          0.11152042	          0.20497938	          0.05005755	          0.02513495	          0.07440725	          0.01370305	          0.00999999	          0.27826543	          0.00999999	          0.00999999	          0.25663595	          0.14443443	          0.09087760	          0.13965369	          0.00999999	          0.21218619	          0.01780332	          0.05349146	          0.00999999	          0.05217542	          0.01000000	          0.00999999	          0.02161543	          0.05376986	          0.19874926	
